<svg width="12" height="11" viewBox="0 0 12 11" fill="none" xmlns="http://www.w3.org/2000/svg">
<path d="M10.7715 2.98947C10.7788 3.09797 10.7788 3.20646 10.7788 3.31595C10.7788 6.65224 8.30225 10.5 3.7738 10.5V10.498C2.43608 10.5 1.12614 10.107 0 9.36607C0.194516 9.39007 0.390006 9.40207 0.585984 9.40257C1.69458 9.40357 2.77148 9.02209 3.64363 8.31964C2.59013 8.29914 1.6663 7.59468 1.34357 6.56625C1.71261 6.63924 2.09287 6.62424 2.45509 6.52275C1.30652 6.28477 0.480195 5.24983 0.480195 4.04791V4.01591C0.822425 4.2114 1.20561 4.31989 1.59756 4.33189C0.515783 3.59044 0.182328 2.11453 0.835588 0.960602C2.08556 2.538 3.9298 3.49694 5.90957 3.59844C5.71115 2.72149 5.98221 1.80255 6.62182 1.18609C7.61341 0.230148 9.17294 0.279145 10.1051 1.29558C10.6564 1.18409 11.1849 0.976601 11.6685 0.68262C11.4847 1.26708 11.1001 1.76355 10.5862 2.07903C11.0742 2.02004 11.551 1.88604 12 1.68156C11.6695 2.18952 11.2531 2.632 10.7715 2.98947Z" fill="#08A0E9"/>
</svg>
